<?xml version="1.0" encoding="UTF-8"?><svg id="Layer_1" xmlns="http://www.w3.org/2000/svg" viewBox="0 0 32 32"><defs><style>.cls-1{fill:#ca09d7;}.cls-2{fill:none;stroke:#ca09d7;stroke-miterlimit:10;stroke-width:.6px;}</style></defs><path class="cls-2" d="m21.91,30.3c-.75.22-1.53.33-2.34.33h-7.14c-.54,0-1.08-.05-1.6-.15"/><path class="cls-2" d="m9.95,1.74c.79-.24,1.63-.37,2.48-.37h7.14c.72,0,1.43.09,2.11.27"/><path class="cls-2" d="m10.83,30.48c-.15-.03-.29-.06-.44-.1h0c-2.2-.55-4.12-1.96-5.28-3.97l-2.21-3.82-.22-.38-1.15-1.98C.03,17.61.03,14.39,1.54,11.78l.33-.57.21-.36,3.03-5.25c1.01-1.75,2.59-3.05,4.43-3.71.13-.05.27-.1.41-.14"/><path class="cls-2" d="m21.68,1.64c.15.04.29.08.44.13,1.98.63,3.7,1.98,4.77,3.83l2.64,4.58.22.38.71,1.22c1.51,2.61,1.51,5.83,0,8.45l-.69,1.2-.21.36-2.67,4.62c-1.03,1.79-2.67,3.12-4.57,3.77-.13.04-.27.09-.41.13"/><g id="_Radial_Repeat_"><path class="cls-1" d="m15.08,21.02v.47c-.8-.4-1.65-.72-2.54-.95-.15-.04-.3-.07-.45-.1-.87-.19-1.77-.29-2.69-.29v-.42c.88,0,1.74.09,2.58.25.15.03.3.06.45.1.92.22,1.81.53,2.65.94Z"/><path class="cls-1" d="m22.31,30.18c-.13.04-.27.09-.41.13-.34-1.63-1-3.16-1.91-4.5-.83-1.24-1.88-2.32-3.08-3.2v-.52c1.45,1.01,2.68,2.29,3.63,3.78.83,1.3,1.43,2.75,1.76,4.3Z"/></g><g id="_Radial_Repeat_-2"><path class="cls-1" d="m12.54,26.31c-.32,1.46-.89,2.87-1.71,4.17-.15-.03-.29-.06-.44-.1.87-1.33,1.47-2.81,1.79-4.37h0c.17-.84.26-1.7.26-2.57,0-1.02-.12-2.02-.35-2.99-.04-.15-.07-.31-.12-.46-.3-1.09-.75-2.12-1.33-3.09-.08-.14-.16-.27-.25-.4-.48-.75-1.05-1.45-1.7-2.1l.3-.3c.62.62,1.17,1.29,1.64,1.99.09.13.18.27.26.4.7,1.13,1.21,2.34,1.54,3.59.04.15.08.31.11.46.42,1.9.42,3.87,0,5.76Z"/></g><g id="_Radial_Repeat_-3"><path class="cls-1" d="m2.91,22.59c.97-.26,1.9-.63,2.77-1.09,2.03-1.08,3.74-2.67,4.97-4.6.08-.13.17-.27.25-.4.66-1.12,1.15-2.34,1.46-3.63.04-.15.07-.3.1-.45.17-.83.25-1.7.25-2.58h-.42c0,.92-.1,1.83-.29,2.7-.03.15-.07.3-.1.45-.28,1.1-.7,2.15-1.25,3.12-.08.14-.16.27-.24.4-1.2,1.95-2.91,3.56-4.94,4.64-.87.46-1.8.82-2.77,1.08l.22.38Z"/></g><g id="_Radial_Repeat_-4"><path class="cls-1" d="m15.08,11.34v.47c-.88.45-1.79.8-2.73,1.05-.15.04-.31.08-.46.11-.95.21-1.92.32-2.89.32-1.44,0-2.88-.23-4.25-.7-1-.34-1.97-.8-2.87-1.38l.21-.36c.88.57,1.82,1.02,2.8,1.36,1.31.45,2.7.68,4.12.68,1.02,0,2.02-.12,2.99-.35.15-.04.31-.08.46-.12.92-.25,1.8-.61,2.64-1.07Z"/><path class="cls-1" d="m18.33,9.43c-.45.45-.92.86-1.42,1.23v-.53c.39-.31.76-.64,1.12-.99l.3.3Z"/></g><g id="_Radial_Repeat_-5"><path class="cls-1" d="m9.54,1.88c.24,1.61.77,3.13,1.54,4.49.98,1.75,2.36,3.26,4,4.4v-.52c-1.51-1.1-2.78-2.53-3.68-4.18-.73-1.32-1.23-2.78-1.45-4.34l-.41.14Z"/><path class="cls-1" d="m22.6,12.71v.42c-.88,0-1.74-.09-2.57-.25-.16-.03-.31-.06-.47-.1-.93-.22-1.81-.53-2.65-.94v-.47c.8.4,1.65.72,2.54.94.15.04.3.07.46.11.86.19,1.76.28,2.68.28Z"/></g><g id="_Radial_Repeat_-6"><path class="cls-1" d="m23.3,18.47l-.3.3c-.62-.62-1.17-1.29-1.64-1.99-.09-.13-.17-.26-.26-.4,0,0,0,0,0,0-.7-1.13-1.21-2.34-1.54-3.6-.04-.15-.08-.31-.11-.46-.5-2.22-.41-4.55.25-6.74.42-1.39,1.08-2.73,1.97-3.94.15.04.29.08.44.13-.92,1.22-1.59,2.58-2.01,3.99-.65,2.17-.71,4.48-.18,6.68.04.15.08.31.12.46.3,1.07.74,2.11,1.32,3.09,0,0,0,0,0,0,.08.13.16.27.25.4.48.74,1.05,1.45,1.7,2.1Z"/></g><g id="_Radial_Repeat_-7"><path class="cls-1" d="m29.75,10.55c-1.03.23-2.02.58-2.94,1.04-2.15,1.07-3.96,2.74-5.21,4.77-.08.13-.16.27-.24.41-.55.97-.97,2.01-1.25,3.12-.04.15-.07.3-.1.45-.19.87-.29,1.77-.29,2.7h-.42c0-.88.09-1.74.25-2.58.03-.15.06-.3.1-.45.3-1.29.8-2.51,1.45-3.63,0,0,0,0,0,0,.08-.14.16-.27.25-.41,1.27-2.01,3.08-3.65,5.21-4.73.93-.47,1.92-.83,2.96-1.07l.22.38Z"/></g><g id="_Radial_Repeat_-8"><path class="cls-1" d="m15.08,22.21v.53c-.39.31-.76.64-1.12.99l-.3-.3c.45-.45.92-.86,1.42-1.23Z"/><path class="cls-1" d="m29.76,21.43c-.89-.53-1.83-.95-2.8-1.25-2.22-.7-4.59-.79-6.85-.29-.15.03-.31.07-.46.11h0c-.94.24-1.86.59-2.73,1.05v.47c.84-.45,1.72-.81,2.64-1.07h0c.15-.04.3-.08.45-.12.97-.23,1.97-.35,2.99-.35,1.31,0,2.6.2,3.81.58.96.3,1.87.71,2.73,1.22l.21-.36Z"/></g><path class="cls-1" d="m26.63,15.96c.38,1.53.32,2.99-.11,4.22-.04.13-.09.26-.15.39-.59,1.41-1.67,2.47-3.07,2.92-.81,2.16-2.04,3.06-3.2,2.39-.13-.07-.25-.17-.38-.28-.06.08-.11.15-.17.22-.16.19-.32.34-.48.46-1.07.81-2.61.02-2.61-1.32V7.05c0-.86.67-1.58,1.52-1.63.4-.02.83.01,1.27.17.13.04.26.1.39.17.4.21.79.54,1.15,1.02,1.79-.69,3.44.72,4.05,3.45.51.25.93.59,1.27,1.02.09.11.17.23.25.35.71,1.14.85,2.72.26,4.37Z"/><path class="cls-1" d="m15.53,7.05v17.9c0,1.31-1.47,2.1-2.54,1.37-.02-.01-.04-.03-.07-.05-.1-.07-.19-.16-.29-.26h0c-.12-.12-.24-.26-.35-.42-1.25,1.14-2.68.3-3.57-2.1-1.07-.35-1.96-1.05-2.58-1.99-.08-.12-.15-.24-.22-.36-.78-1.4-1.02-3.23-.53-5.17-.43-1.21-.47-2.38-.18-3.37.04-.13.08-.27.14-.39.35-.87.97-1.56,1.82-1.98.62-2.74,2.26-4.14,4.05-3.45.11-.15.21-.28.33-.4.1-.11.21-.21.32-.3.71-.57,1.49-.7,2.16-.66.86.05,1.52.77,1.52,1.63Z"/></svg>