<?xml version="1.0" encoding="utf-8"?>
<!-- Generator: Adobe Illustrator 28.0.0, SVG Export Plug-In . SVG Version: 6.00 Build 0)  -->
<svg version="1.1" id="Layer_2_00000065790757065922040230000004743048543777835155_"
	 xmlns="http://www.w3.org/2000/svg" xmlns:xlink="http://www.w3.org/1999/xlink" x="0px" y="0px" viewBox="0 0 1300 1300"
	 style="enable-background:new 0 0 1300 1300;" xml:space="preserve">
<g id="AIdcnH.tif">
	<path d="M732.4,791.2H6.4V512.4c0-4.1-0.5-3.6,3.5-3.6h719.3c2,0,3,1,3.1,3.1v275.5C732.3,788.7,732.3,789.9,732.4,791.2z
		 M99.1,699.1c6.9-2.9,9.6-5,13.7-8.9c7-6.8,8.5-22.7-3.3-30.2c-3.2-2-6.6-3.2-10.3-3.9c-6.8-1.3-13.6-1.5-20.4-1.4
		c-11.1,0.1-22.2,0-33.3,0c-1.9,0-2.2,0.9-2.3,2.4c-0.1,1.6,0.6,2.1,2,2.1s3,0.2,4.5,0.3c6.1,0.2,7.9,2,7.9,8V740
		c-0.4,4.4-1.9,5.9-6.4,6.2c-2,0.1-4.1,0.3-6.1,0.4c-1.3,0-1.7,0.6-1.9,1.9c-0.3,2.3,0.7,2.8,2.8,2.8c16.1-0.2,32.3-0.2,48.5,0
		c2.8,0,5.7-0.3,8.5-0.9c8.4-1.9,15.7-5.3,20.7-12.8c6.7-10,5.1-22.5-4.1-30.2C113.7,702.5,106.7,700.3,99.1,699.1L99.1,699.1
		L99.1,699.1z M322.7,715.4c-0.6-0.8-0.4-1.4-0.4-2v-41.6c0-7.2,1.6-14.3,1.1-21.6c-0.1-1.8-0.6-2.4-2.3-2.1
		c-0.5,0.1-0.9,0.1-1.4,0.2c-7.4,1.7-14.8,3-22.3,3.8c-2.1,0.2-1.4,1.7-1.5,2.8c-0.2,1.4,0.5,1.7,1.8,1.8c1.9,0,3.8,0.2,5.7,0.4
		c2.4,0.2,3.9,1.4,4.9,3.5c0.7,1.6,0.9,3.3,0.9,5v70.8c0,2.1-0.4,4.2-0.9,6.3c-0.5,2.1-1.8,3.1-3.8,3.3c-1.6,0.2-3.3,0.4-4.9,0.5
		c-1.3,0-1.8,0.5-1.8,1.9c-0.1,2,0.4,2.8,2.6,2.8c10.4,0,20.8,0,31.2,0.1c1.9,0,1.7-1,1.7-2.2c0.1-1.3,0.4-2.5-1.7-2.5
		c-2,0-3.9-0.3-5.8-0.8c-1.5-0.4-2.3-1.3-2.4-2.8c-0.3-2.6-0.8-5.1-0.9-7.7c-0.1-4.8,0-9.6,0-14.5c0.4,0,0.6,0,0.7,0.1
		c6.9,7.1,13.2,14.7,19.5,22.4c1.9,2.3,1.3,3.3-1.8,3.3c-2.1,0-2.7,0.9-2.7,2.8c0,2.2,1.5,1.8,2.8,1.8h22.7c2.1,0,4.2,0,6.4,0.1
		c2,0,1.4-1.4,1.4-2.5s0.5-2.3-1.4-2.2c-3.7,0.1-6.6-1.8-8.9-4.3c-8.7-9.2-17.2-18.6-25.8-27.8c-1-1.1-1-1.7,0.1-2.6
		c4.5-4,9-8.1,13.4-12.3c4.9-4.7,9.7-9.3,17.3-8.6c2.1,0.2,1-2,1.3-3.2c0.3-1-0.5-1.4-1.4-1.3c-8.8,0.1-17.7,0.2-26.5,0
		c-2.2-0.1-1.6,1.4-1.7,2.6c-0.2,1.3,0,2.1,1.7,2.1c1.6,0,3.2,0,4.7,0.4c2.1,0.5,2.3,1.1,0.9,2.8c-0.3,0.5-0.7,0.8-1.1,1.2
		c-7.1,6.6-14.4,13.1-21.4,20.1L322.7,715.4L322.7,715.4z M576.8,694.5c0-3.3-0.1-6.1,0-8.9c0-1.4-0.4-1.8-1.8-1.4
		c-7.3,2.4-14.7,3.9-22.2,5.2c-1.1,0.2-1.6,0.7-1.6,1.9c-0.1,1.9,0,3.1,2.6,3c5.9-0.1,7.2,1.2,8.5,6.9c0.1,0.5,0.3,1.1,0.3,1.6
		c0,12.3,0.1,24.6,0,36.9c0,4.2-1.8,5.9-6,6.4c-1.1,0.1-2.2,0.1-3.3,0.2c-2.3,0.1-1.3,1.9-1.5,3c-0.3,1.3,0.5,1.6,1.7,1.6h32.4
		c0.5,0,1.1,0.1,1.4-0.6c0.9-2.1-0.2-4-2.6-4.2c-1.6-0.1-3.1-0.2-4.7-0.7c-1.8-0.6-2.6-1.7-2.7-3.6c-0.7-13.7-0.1-27.3-0.4-40.9
		c0-1.1,0.4-1.9,1.4-2.5c3.7-2.4,7.6-3.7,12-3.9c7.5-0.4,11,2.1,13.2,9.3c0.6,2,0.9,4,0.9,6v28.7c0,1.2-0.2,2.4-0.5,3.5
		c-0.8,3-1.5,3.7-4.7,4c-1.3,0.1-2.5,0.4-3.8,0.3c-2.3-0.1-1.9,1.4-2.1,2.8c-0.2,1.8,0.9,1.9,2.2,1.9c10.6,0,21.1,0,31.7,0
		c0.6,0,1.3,0.2,1.6-0.6c0.9-2-0.2-4.1-2.4-4.2c-1.2-0.1-2.4-0.1-3.5-0.4c-3-0.5-3.9-1.6-4-4.6c-0.1-7.9-0.3-15.8-0.4-23.7
		c0-5.3,0.2-10.7-0.1-16c-0.4-6.1-2.5-11.6-8.4-14.6c-4.5-2.4-9.4-3-14.5-2c-6.9,1.3-13,4.3-18.7,9.4L576.8,694.5L576.8,694.5z
		 M512.1,684.7c-18.1,0.6-34.3,12.7-34.4,33.5c-0.1,21,14.8,34.1,34.3,34.1s34-13.3,34.4-33.3C546.6,698.9,532.1,685.5,512.1,684.7z
		 M221.5,717.8c0.5-6.2,0.5-12.3,0.5-18.4c-0.1-6.6-2.9-11-8.4-12.8c-3-1-6.1-1.6-9.2-1.8c-8.3-0.5-15.9,1.7-23,5.8
		c-2.1,1.2-3.8,2.9-4.9,5.2c-1.2,2.6-1,4.4,0.9,6.4c1.7,1.8,3.7,2.2,6.1,1.4c2.2-0.8,4.1-2,5.2-4.1c1-1.9,2.2-3.6,3.3-5.4
		c2.4-3.8,6-4.2,9.9-3.6c3.6,0.5,4.3,3.5,5.1,6.3c0.1,0.5,0.3,1.1,0.3,1.6c0.3,4.8,0.2,9.7,0.1,14.6c0,0.9-0.2,1.4-1.3,1.4
		c-4,0.1-8,1.1-11.8,2c-6.9,1.6-13.4,4-18.1,9.8c-3.8,4.7-4.2,9.9-2,15.3c2.4,5.8,6.6,9.5,13.3,10.1c7.1,0.7,13-1.6,18.4-5.8
		c1.4-1.1,2-1,3,0.5c1.6,2.5,3.7,4.7,7,5.2c4.3,0.5,8.4,0,11.9-2.6c2.7-1.9,5.3-4,8-5.8c1.3-0.9,1.2-1.7,0.2-2.5
		c-0.9-0.8-1.4-3.1-3.4-1.3c-1,1-2.4,1.5-3.7,1.9c-4.2,1.4-7.3-0.6-7.4-5C221.5,730.1,221.5,723.9,221.5,717.8L221.5,717.8
		L221.5,717.8z M667.7,713.1L667.7,713.1c6.8,0,13.6,0,20.3,0c2.7,0,2.8-0.3,2-2.7c-0.3-0.9-0.5-1.8-0.6-2.7
		c-1.4-11.6-8.5-19.5-19.9-22.2c-11.7-2.7-23.3,1.5-29.9,10.8c-4.1,5.7-6.1,12.1-6.8,19c-0.9,9.9,1,19.2,7.4,26.9
		c9.1,11.1,24.7,13.2,38.2,5.8c4.6-2.5,8.1-6.4,12.4-9.4c0.7-0.5,0.4-0.9,0-1.3c-0.6-0.6-1.1-1.3-1.6-2c-0.6-0.9-1.3-0.9-2.1-0.2
		c-5.2,4.6-11.4,6.3-18.3,6.1c-8.7-0.2-15-4-19.1-11.6c-2.4-4.4-2.9-9.2-3.8-14c-0.4-1.9,0-2.7,2.2-2.6
		C654.5,713.3,661.2,713.1,667.7,713.1L667.7,713.1L667.7,713.1z M157.1,695.6h0.1c0-15.1,0-30.1,0-45.1c0-2.3-0.9-2.7-2.7-2.4
		c-7.8,1.4-15.6,3.3-23.5,4.1c-1.9,0.2-1.1,1.9-1.4,3c-0.3,1.3,0.7,1.3,1.6,1.4c2.2,0.1,4.4,0.2,6.6,0.5c2.8,0.3,4.4,1.9,4.7,4.7
		c0.1,0.8,0.1,1.6,0.1,2.4v67.5c0,3.3,0,6.7-0.1,10.1c-0.1,2.9-1.4,4-4.2,4.4c-1.6,0.2-3.1,0.4-4.7,0.5c-1.2,0.1-1.7,0.6-1.9,1.9
		c-0.2,2.3,0.7,2.8,2.8,2.8c10.2-0.1,20.3,0,30.5,0c1.4,0,1.9-0.3,2-1.8c0.1-2.1-0.2-3.3-2.7-3c-0.8,0.1-1.6-0.1-2.4-0.2
		c-4.1-0.5-4.9-1.4-5.1-5.6L157.1,695.6L157.1,695.6L157.1,695.6z M420.7,695.6L420.7,695.6c0-3.1-0.1-6.1,0-9.2
		c0-1.5-0.5-2.3-1.9-1.5c-3.9,2.1-7.8,0.8-11.8,0.2c-8.4-1.2-16.2,0.1-22.9,5.7c-7.7,6.4-8.2,18.9-1.2,26.1c3.8,3.9,8.6,5.9,13.5,8
		c3.7,1.6,7.5,2.9,10.8,5.2c5.6,3.9,5.3,11.4-0.6,14.8c-9,5.2-20.4,0.4-23.8-10.2c-0.5-1.6-0.9-3.2-1.4-4.7c-0.5-1.3-1-2.6-2.8-2.3
		c-1.7,0.3-1.6,1.7-1.5,3c0.1,6.3,0.4,12.7,0.5,19c0,1.3,0.5,1.7,1.7,1.5c2.8-0.4,5.6-0.5,8.5-0.1c5.8,0.7,11.5,2,17.5,0.8
		c5.9-1.2,10.8-3.6,14.7-8.1c7-8,5.2-20.2-3.7-25.9c-0.7-0.4-1.4-0.8-2-1.2c-4.4-2.7-9.4-4.4-14-6.7c-2.7-1.3-5.4-2.7-7.5-4.7
		c-3.5-3.3-3.6-8.1-0.2-11.5c5.6-5.6,17.2-3.9,21,3c1.4,2.6,2.3,5.4,2.4,8.3c0.1,2.6,2,1.3,3.1,1.5c1.3,0.3,1.8-0.3,1.7-1.6
		c-0.1-3.1,0-6.1,0-9.2L420.7,695.6L420.7,695.6z M239.1,719.7c-0.4,8.9,2.6,16.9,8.6,23.6c6.5,7.2,14.9,10.1,24.7,8.8
		c8.8-1.2,15-6.4,20.9-12.3c1.5-1.5,0.8-3.2-0.4-4.4s-1.9,0.3-2.8,0.8c-1,0.6-1.9,1.4-2.9,2c-11.7,7.3-25.8,3.3-31.6-9.1
		c-3-6.4-4.3-13.2-2.8-20.3c1.2-5.9,3.2-11.3,8-15.3c5.2-4.3,12.1-3.8,16.7,1c1.4,1.5,2.8,2.9,4.2,4.4c2.4,2.6,5.5,2.5,8.5,1.7
		c2-0.5,3-2.2,3.3-4.2c0.4-3.8-0.9-5.9-5.1-8c-3.6-1.8-7.5-2.4-11.3-3c-8.5-1.4-16.8,0-23.9,4.9
		C242.9,697.1,239.1,707.5,239.1,719.7L239.1,719.7L239.1,719.7z M438.2,720.1c0,5.2-0.1,11.3,0,17.4c0.2,10.2,7.1,15,15.8,15
		c7.7,0,14.1-4,19.5-9.4c1.3-1.3,0.6-2.5-0.2-3.6c-0.9-1.2-1.9-0.7-2.9,0c-0.8,0.6-1.4,1.3-2.3,1.7c-2.5,1.4-5.2,2.8-8.2,2.1
		c-4.7-1.2-7.1-4.5-7.1-10.3c-0.1-12.7,0-25.4,0-38.1c0-1.4,0.4-1.7,1.7-1.7c4.7,0.1,9.4,0,14.2,0c4.7,0,4.5,0,4.5-4.6
		c0-1.7-0.5-2.1-2.2-2.1c-5.4,0.1-10.9,0-16.3,0.1c-1.4,0-1.9-0.4-1.9-1.9c0.1-3.2,0.1-6.4,0-9.6c0-1.5,0.9-3.7-0.6-4.3
		c-2.2-0.9-3.2,1.5-4.2,2.9c-4.7,6.1-9.9,11.8-16.3,16.2c-0.7,0.5-1.8,0.8-1.4,1.9c0.4,1.1,1.4,1.4,2.5,1.4c1.6,0,3.2,0.1,4.7,0
		c1.8-0.2,2.4,0.4,1.9,2.2c-0.8,2.8-0.9,5.7-0.8,8.6C438.6,709.1,438.7,714.1,438.2,720.1L438.2,720.1z"/>
	<path d="M1063.9,710.4v-32c0-4.6-1.3-5.9-5.7-6.3c-1.2-0.1-3.3,0.5-3.4-1.2c-0.1-1.7,2-1.7,3.3-1.9c4.7-1,9.4-1.8,14.1-2.9
		c2-0.5,2.5-0.1,2.6,2c0.1,11.7-0.4,23.4-0.5,35c0,0.7-0.5,1.8,0.4,2.1c0.8,0.3,1.4-0.5,2-0.9c4.7-3.2,9.6-5.6,15.3-6.3
		c8-1,14.6,4,15.9,12c0.5,2.7,0.4,5.5,0.4,8.2v23.3c0,4.6,1,5.7,5.6,6c1.2,0.1,2.4-0.1,3.3,1c0.1,0.1,0.5,0.3,0.6,0.3
		c2.4-1.8,5.4-0.8,8-1.8c1-0.4,1.7-1.1,2-2.1c0.5-1.4,0.5-2.8,0.5-4.2v-58.8c0-1.3,0-2.5-0.3-3.8c-0.6-2.5-2.2-3.8-4.6-4
		c-1.1-0.1-2.2-0.1-3.3-0.1c-1.3,0-2.6-0.3-2.5-1.8c0-1.9,1.6-1.4,2.7-1.3c8,0.9,15.9,0.6,23.8,0.3c5.2-0.2,10.2-0.1,15.3,0.6
		c4.2,0.6,8.2,1.7,11.7,4.1c6.7,4.4,9.4,12.1,7.1,20.8c-2.5,9.4-11.1,16.7-21.2,18c-5.1,0.7-10.2,0.5-15.3-0.4
		c-1.5-0.3-2.1,0.1-2,1.7c0.1,8.1,0.1,16.1,0.2,24.2c0.1,5.3,1.5,6.6,7.4,7.3c1.1,0.1,2.2,0.2,3.3,0.5c0.9,0.2,1.7,0.9,1.6,1.8
		c-0.1,0.9-1.1,1.1-1.9,1c-2.1-0.1-4.2-0.3-6.4-0.4c-7.8-0.5-15.6-0.4-23.4,0.3c-3.7,0.3-7.5,0-11.2-0.4c-5.1-0.5-10.2-0.4-15.3,0.3
		c-0.7,0.1-1.4,0.2-2.1,0.1c-1,0-2.6,0.4-2.7-1c-0.2-1.6,1.4-1.9,2.6-2.1c5.9-1,6.1-1,6.2-7.1c0.1-8.7,0.6-17.4-0.3-26.1
		c-0.8-7.1-6.3-10.9-13.4-9.6c-1.2,0.2-2.3,0.5-3.4,0.9c-5.5,1.7-6.5,2.8-6.4,8.5c0.1,9.5-0.5,19,0.4,28.4c0.4,3.9,1,4.4,5,4.8
		c1.3,0.1,2.5,0,3.7,0.7c0.6,0.4,1.2,0.9,1.1,1.7c-0.1,0.8-0.9,0.8-1.5,0.8c-1.1,0-2.2,0.1-3.3,0c-7.1-0.8-14.3-0.9-21.5,0
		c-1,0.1-2.5,0.6-2.7-1c-0.3-1.7,1.2-1.9,2.5-2.1c0.5,0,0.9,0,1.4,0c3.7-0.3,4.6-1.3,4.6-5L1063.9,710.4L1063.9,710.4L1063.9,710.4z
		 M1139.9,692.1h-0.3v15.7c0,1.5,0.4,2.3,2,2.5c4,0.5,8,0.9,12,0.5c6.6-0.7,10.9-4.3,12.5-10.8c0.9-3.4,0.7-6.8,0.5-10.3
		c-0.4-6.8-4.1-11.6-10.6-13.7c-4.9-1.6-9.9-1.1-15-1.1c-1.3,0-1.2,0.9-1.2,1.8L1139.9,692.1L1139.9,692.1L1139.9,692.1z"/>
	<path d="M935.5,715.9c-0.2,8.5-0.1,17.1,0.6,25.6c0.4,4.5,1.3,5.5,5.7,5.5c1.1,0,2.3-0.1,2.9,1c0.2,0.3,0.5,0.6,0.7,0.4
		c1.9-1.3,4.3-0.7,6.4-1.6c1.6-0.7,1.8-2.3,1.9-3.8c0.7-7,0-14,0.2-20.9c0.1-4.1,0.4-8.1-0.3-12.2c-0.6-4.2-2-5.5-6.3-5.8h-0.9
		c-0.9,0-1.6-0.3-1.7-1.3c-0.1-1,0.8-1.3,1.6-1.4c2.3-0.5,4.7-0.7,7-1.2c2.9-0.6,5.9-1.2,8.7-2c1.6-0.4,2,0.1,2,1.5
		c0,1.3,0,2.7-0.1,4c-0.1,1.7,0.6,1.7,1.8,0.9c2.8-1.9,5.7-3.9,9-5.1c3.5-1.3,7-2.4,10.8-1.8c6.6,1.1,11.7,6.4,12.1,13.1
		c0.6,8.6,0,17.2,0,25.9c0,1.8,0,3.6,0.1,5.4c0.5,4,1.5,4.9,5.6,5.2c1.1,0,2.2,0.1,3.3,0.5c0.7,0.3,1.1,0.9,1,1.7
		c-0.1,0.8-0.8,1-1.4,1c-1,0-2.1,0.1-3.1,0c-6.8-0.9-13.7-0.9-20.5,0c-1.3,0.1-3.5,1.3-3.8-1.2c-0.2-2.6,2.2-1.6,3.4-1.8
		c3.8-0.4,5.1-1.3,5-5.1c-0.2-9.2,1-18.5,0-27.7c-0.9-7.8-5.7-11.3-13.4-10c-0.7,0.1-1.4,0.3-2.1,0.5c-7.2,1.8-8.1,2.9-8,10.2
		c0.2,8.8-0.4,17.6,0.3,26.3c0.4,4.8,1.3,5.5,6.2,5.7c0.5,0,1.1,0.1,1.6,0.2c1,0.2,1.8,0.8,1.7,1.9c-0.1,1.2-1.1,1.2-2,1.1
		c-2.8-0.2-5.7-0.4-8.5-0.5c-3.2-0.2-6.5-0.4-9.7,0.1c-3.5,0.5-7-0.2-10.4-0.3c-5.2-0.1-10.5,0.8-15.7,1.4c-1.5,0.2-1.9-0.3-1.8-1.5
		c0-1.2,0-2.4,0.1-3.5c0-0.5,0.3-1.1-0.2-1.5c-0.6-0.5-1.2,0.1-1.7,0.4c-4.1,2.5-8.4,4.7-13.1,5.8c-8.5,1.9-15.1-1.4-17.2-8.9
		c-0.5-1.9-0.6-3.8-0.6-5.8c0-8.2,0.1-16.5,0-24.7c-0.1-5.7-0.9-6.5-6.6-7.4c-0.9-0.1-2.4,0-2.3-1.4c0-1.2,1.4-1.3,2.4-1.4
		c5.2-0.6,10.3-1.7,15.2-3.1c1.5-0.4,2-0.1,1.9,1.5c-0.7,11.3-0.1,22.6-0.3,33.9c0,2.1,0.2,4.1,1,6c1.2,2.7,3.2,4.5,6.1,5
		c4.9,0.7,9.6-0.1,13.8-2.8c0.9-0.5,1.3-1.2,1.3-2.3c0.1-9.7,0.7-19.4,0-29.2c-0.4-4.5-1.9-5.8-6.4-6.1h-0.7c-0.9,0-1.8-0.3-1.8-1.4
		s1-1.2,1.7-1.3c3.8-0.4,7.5-1.2,11.1-2c1.4-0.3,2.9-0.5,4.3-1c1.6-0.6,2.2-0.1,2.1,1.5c-0.5,5.3,0,10.7-0.1,16h0.1L935.5,715.9z"/>
	<path d="M1284.6,704.2v33.6c0,1.2,0,2.4,0.1,3.5c0.4,4.2,1.8,5.5,6,5.6c1.1,0,2.9-0.4,2.9,1c0,1.6-1.7,1.6-3.1,1.7
		c-5,0.5-10,1-15,1.7c-1.2,0.2-1.7,0-1.7-1.3c0-1.4,0.8-3.6-0.4-4.2c-1-0.5-2.5,1.2-3.8,1.9c-7,3.7-14.1,5.2-21.7,1.4
		c-6.7-3.3-9.8-9.1-11.2-15.9c-1.9-8.9-0.5-17.4,4.7-24.9c6.6-9.4,16-12,27-10.3c1.2,0.2,2.4,0.3,3.4,0.8c2,0.8,2.6,0.3,2.5-1.9
		c-0.1-5.2-0.1-10.5-0.1-15.8c0-1.5-0.1-3-0.5-4.4c-0.7-3.6-2.4-5-6-4.9c-1.1,0-2.6,0.4-2.7-1s1.3-1.8,2.5-2
		c4.9-0.9,9.9-1.9,14.8-2.9c1.9-0.4,2.1,0.2,2.1,1.8L1284.6,704.2L1284.6,704.2L1284.6,704.2L1284.6,704.2z M1274.5,723.4
		L1274.5,723.4v-15.5c0-1.8-0.7-2.9-2.2-3.8c-9.4-6.2-21.1-2.2-24.4,8.5c-2.2,7-2.2,14.1,0.1,21c3.3,10.1,13.5,14.4,23.2,10.1
		c2.2-1,3.3-2.4,3.3-4.9C1274.4,733.6,1274.5,728.6,1274.5,723.4L1274.5,723.4L1274.5,723.4z"/>
	<path d="M799.6,746c4.7,0,8.7,0.1,12.6-0.4c4.1-0.5,7.3-2.3,9.2-6.1c1.2-2.4,2.2-5,3.1-7.6c0.2-0.5,0.3-0.9,0.5-1.3
		c0.5-1,1.5-1.3,2.4-1c0.9,0.4,0.3,1.3,0.1,1.9c-1.3,6.1-2.6,12.1-3.8,18.1c-0.3,1.3-1.1,1.1-1.9,1.1c-5.3-0.2-10.7-0.6-16-0.6
		c-12.8,0.1-25.7-0.9-38.5,0.5c-1.2,0.1-3.3,0.9-3.5-1.1c-0.1-1.9,2-1.8,3.4-2c1-0.2,2-0.3,3-0.5c1.8-0.4,2.9-1.4,3-3.3
		c0.1-1.7,0.4-3.4,0.4-5.2V680c-0.3-4.5-1.5-5.7-6.1-6c-0.9,0-1.8,0-2.6-0.2c-0.9-0.2-1.5-0.9-1.3-1.9c0.2-0.9,1-1,1.9-0.9
		c8.4,0.7,16.9,0.3,25.3,0.3c1.3,0,2.5-0.3,3.8-0.3c0.8,0,1.6,0.2,1.7,1.2c0.1,1-0.5,1.6-1.5,1.8c-1.4,0.1-2.8,0.1-4.2,0.2
		c-3.3,0.2-4.6,1.4-5.1,4.7c-0.2,1.2-0.4,2.5-0.4,3.8c-0.1,15-0.4,29.9,0.2,44.9c0.2,4.3,0,8.6,0.1,12.9c0.1,3.9,0.9,4.7,4.7,5.4
		c3.4,0.6,6.9,0.2,9.6,0.4L799.6,746L799.6,746z"/>
	<path d="M1220.9,722.9v13.9c0,0.9,0,1.9,0.2,2.8c0.8,4.7,3.7,6.1,8,4c1.1-0.5,2.4-2.2,3.5-0.7c1.1,1.6-0.9,2.4-1.9,3.2
		c-2.1,1.7-4.3,3.2-6.8,4.2c-5.1,2.1-7.9,1.4-11-3.1c-1-1.5-1.7-1.7-3.3-0.6c-3,2.2-6.2,3.9-9.9,4.7c-5.9,1.2-12.3-2.1-15-7.7
		c-2.4-5.1-0.7-11,4.2-14.8c5-3.8,10.8-5.7,17-6.5c5.6-0.7,5.6-0.7,5.6-6.2c0-2.8,0.3-5.7-0.3-8.5c-0.8-3.5-3.1-5.9-6.3-6.4
		c-3.2-0.5-6.3,0.9-8.1,4c-1.2,1.9-2.1,4-4.1,5.4c-2.2,1.5-4.6,1.5-6-0.1c-1.6-1.7-1.5-4.3,0.1-6.2c1-1.1,2.2-2,3.6-2.7
		c3.5-1.6,7.1-3,11-3.3c4.6-0.3,9.3-0.7,13.7,1.1c4.4,1.8,6.2,4.4,6.2,9.2V723L1220.9,722.9L1220.9,722.9z M1211.1,733.6
		L1211.1,733.6l0-7.3c0-1.1-0.5-1.6-1.5-1.5c-4.5,0.6-8.9,1.2-12.8,3.7c-2.9,1.9-4.2,4.7-3.5,7.8c1.5,7.5,9.4,10.9,16.1,7.1
		c1.2-0.7,1.9-1.6,1.8-3C1211.1,738.1,1211.2,735.8,1211.1,733.6L1211.1,733.6z"/>
	<path d="M872.8,722.9v13.9c0,1,0,2,0.2,3c0.9,4.4,3.6,5.7,7.7,3.8c0.7-0.3,1.4-0.7,2.1-1c0.6-0.3,1.2-0.5,1.7,0.2
		c0.4,0.6,0.2,1.3-0.4,1.7c-3.7,3.2-7.5,6.1-12.5,6.7c-3.3,0.4-5.6-1.6-7.1-4.2c-1-1.7-1.7-1.6-3.2-0.5c-3,2.3-6.4,4-10.2,4.8
		c-5.7,1.1-11.9-2-14.6-7.5c-2.5-5-1.2-10.6,3.5-14.6c4.6-3.9,10.2-5.9,16.1-6.7c7-1,7-1,7-8.1c0-1.6,0-3.3,0-4.9
		c-0.2-3.9-2.8-7.4-6-8.1c-3.8-0.9-7,0.7-9.2,4.5c-0.9,1.6-1.7,3.2-3.2,4.3c-2.2,1.8-5,2.1-6.4,0.5c-1.9-2-1.7-5.1,0.6-7.1
		c3.2-2.8,7.1-4,11.1-4.8c5.5-1.1,11.1-1.4,16.5,0.6c4.5,1.7,6.2,4.4,6.2,9.2V723L872.8,722.9L872.8,722.9L872.8,722.9z M863,733.5
		L863,733.5v-7.3c0-1-0.3-1.7-1.4-1.6c-4.4,0.6-8.9,1.2-12.8,3.7c-2.5,1.6-4.2,3.8-3.8,7.1c1,8.1,9.4,12.1,16.4,7.8
		c1-0.6,1.6-1.4,1.6-2.6V733.5z"/>
	<path d="M1019.3,721c0,3.9,0.6,7.6,2.1,11.3c4.4,11,14.6,14.8,25.7,10.1c2-0.9,3.9-2,5.7-3.3c0.7-0.5,1.6-1.1,2.3-0.2
		c0.8,0.9,0.3,1.8-0.5,2.4c-6.5,5.6-13.7,9.9-22.5,10.4c-5.7,0.3-10.6-2.2-14.6-6.1c-6.6-6.2-8.4-14.1-7.7-22.7
		c1.3-17.4,15.1-26.2,30.7-25c3.7,0.3,7.4,0.8,10.7,2.5c1.6,0.8,3.4,1.7,3.2,3.9c-0.2,2.3-2,3.1-4,3.8c-2.8,0.9-5.2-0.2-7.6-1.5
		c-1.9-1-3.8-2.3-5.8-3.2c-6.2-2.7-12-0.6-15.1,5.4C1019.9,712.5,1019.2,716.7,1019.3,721L1019.3,721L1019.3,721z"/>
	<path d="M72.3,720.6v-15.1c0-0.9-0.4-2.1,1.2-2c6.5,0.2,13.1-0.5,19.5,1c7.3,1.7,13.7,4.8,16.6,12.4c3.4,8.9,0.6,24.8-14,28.1
		c-5.4,1.3-10.8,1.9-16.3,0.1c-4.6-1.5-6.6-4-6.7-9c-0.2-5.2,0-10.4,0-15.5C72.7,720.6,72.3,720.6,72.3,720.6z"/>
	<path d="M72.5,679v-17.1c0-1.1-0.1-2.3,1.5-2.4c6.2-0.2,12.4-0.5,18.2,2.5c5.4,2.8,8.5,7,9.4,12.9c0.5,3.5,0.5,7.1-0.4,10.5
		c-1.6,6.5-7.3,11.3-14.1,12.3c-4.5,0.6-9,0.3-13.4,0.5c-1.3,0-1.6-0.5-1.5-1.7c0-5.8,0-11.6,0-17.4L72.5,679L72.5,679L72.5,679z"/>
	<path d="M530.5,720.6c0.5,5.6-0.9,11.2-3.5,16.5c-3.5,7.3-9.2,10.4-17.2,9.4c-4.3-0.5-7.5-3.1-10-6.5c-3.8-5.1-5.7-10.9-6-17.3
		c-0.5-7.5-0.6-15.1,2.8-22.1c2.7-5.5,6.5-9.5,13-10.2c6.9-0.6,11.8,2.4,15.5,8c3.4,5.2,4.7,11.2,5.3,17.3
		C530.6,717.3,530.5,718.7,530.5,720.6C530.5,720.6,530.5,720.6,530.5,720.6z"/>
	<path d="M207.6,729.3c0,2.8-0.1,5.5,0,8.2c0.1,1.8-0.7,2.8-2.3,3.6c-8.4,4.2-16.4,0.8-18.8-8.2c-0.7-2.4,0.3-4.3,1.5-6.1
		c1.6-2.4,4-3.8,6.6-4.7c3.6-1.4,7.4-2.2,11.2-2.7c1.3-0.1,1.7,0.1,1.6,1.4c-0.1,2.8,0,5.7,0,8.5H207.6
		C207.6,729.3,207.6,729.3,207.6,729.3z"/>
	<path d="M660.6,707.4h-12.5c-0.8,0-1.8,0.3-1.5-1c1-5.3,2.8-10.3,7.4-13.7c5.2-3.9,13-2.9,16.9,2.3c2.5,3.3,3.7,7.2,4,11.3
		c0.1,1.4-0.7,1.1-1.5,1.1L660.6,707.4L660.6,707.4L660.6,707.4z"/>
</g>
</svg>
