<?xml version="1.0" encoding="utf-8"?>
<!-- Generator: Adobe Illustrator 28.0.0, SVG Export Plug-In . SVG Version: 6.00 Build 0)  -->
<svg version="1.1" xmlns="http://www.w3.org/2000/svg" xmlns:xlink="http://www.w3.org/1999/xlink" x="0px" y="0px"
	 viewBox="0 0 1300 630" style="enable-background:new 0 0 1300 630;" xml:space="preserve">
<style type="text/css">
	.st0{fill-rule:evenodd;clip-rule:evenodd;fill:#16215B;}
	.st1{fill:#16215B;}
</style>
<g id="Layer_2_00000065790757065922040230000004743048543777835155_">
</g>
<g id="Layer_1">
	<g>
		<path class="st0" d="M286.7,187.1c0-2.6,2.1-4.6,4.7-4.6h51.7c66.3,0,107,43.6,107,100.6c0,57.4-44.7,100.6-106,100.6h-57.6
			L286.7,187.1L286.7,187.1z M317.1,355.8V210H340c51.1,0,79.4,30.9,79.4,73.1c0,41.4-31.3,72.8-78.3,72.8L317.1,355.8L317.1,355.8z
			"/>
		<path class="st1" d="M969.2,188h25.5c2.6,0,4.8,2.1,4.8,4.6v27H974c-2.6,0-4.8-2.1-4.8-4.6V188z"/>
		<path class="st1" d="M816.4,354.6l23.1-11.9c2.1-1.1,4.6-0.4,6,1.5c7.6,10.6,19.1,16.8,33.6,16.8c16.8,0,25.5-8.6,25.5-18.2
			c0-10.4-14.2-13.1-30.4-16.5c-1.1-0.3-2.3-0.4-3.4-0.7c-23.8-5-48.5-12.7-48.5-41.2c0-21.8,21-42,54.1-41.7
			c26,0,45.4,10.2,56.3,26.8l-21.3,11.6c-2,1.1-4.5,0.6-6-1.2c-6.6-7.8-16.6-12.6-29-12.6c-15.9,0-24.1,7.8-24.1,16.6
			c0,9.9,12.7,12.6,32.7,17l0.4,0.1c22.9,5,49,12.5,49,41.2c0,19.1-16.8,44.7-56.5,44.5C848.6,386.6,828.1,375,816.4,354.6z"/>
		<path class="st1" d="M657,245.8h25c2.6,0,4.7,2.1,4.7,4.6v13.3c9.5-12.7,24.6-20.7,43.1-20.7c35.3,0,56.9,22.6,56.9,60.2v80.6
			h-25.5c-2.6,0-4.8-2.1-4.8-4.6v-73.5c0-22.6-11.5-37-33.9-37c-20.1,0-35.6,14.9-35.6,39.2v76h-25.2c-2.6,0-4.8-2.1-4.8-4.6
			L657,245.8L657,245.8z"/>
		<path class="st1" d="M994.7,245.8h-25.5v133.4c0,2.6,2.1,4.6,4.8,4.6h25.5V250.4C999.4,247.9,997.3,245.8,994.7,245.8z"/>
		<path class="st1" d="M1059.5,245.8h-23.8v21.9c0,2.6,2.1,4.6,4.8,4.6h19.1v55.2c0,43.1,12.9,56.3,55.5,56.3h4.5v-23.3
			c0-2.5-2.1-4.6-4.6-4.6c-21.6-0.5-25-5.4-25-28.6v-54.9h29.7v-21.9c0-2.6-2.1-4.6-4.8-4.6h-25v-49l-27.8,15
			c-1.5,0.8-2.5,2.4-2.5,4.1L1059.5,245.8L1059.5,245.8z"/>
		<path class="st1" d="M1201.2,376.6l-57.9-130.9h29.1c1.9,0,3.6,1.1,4.4,2.9l39.6,93l37.5-92.9c0.7-1.8,2.5-2.9,4.4-2.9h28.5
			l-83.3,199c-0.8,1.7-2.5,2.9-4.4,2.9h-27.6L1201.2,376.6z"/>
		<path class="st0" d="M507.1,325c3.9,21.3,20.7,35.3,45.1,35.3c14.3,0,26-5.6,34.1-14.7c1.5-1.7,3.9-2.1,5.8-1l21.1,11.6
			c-12.9,18.5-33.4,30.4-61.1,30.4c-44.2,0-73.9-31.2-73.9-71.3c0-40.4,31.3-72,72.2-72.4c40.2-0.3,72.6,32.7,72.6,72.3v5.1
			c0,2.6-2.1,4.6-4.7,4.6L507.1,325L507.1,325z M551.1,268.9c21.5,0,37,11.1,41.4,30.9h-84C514.1,281.6,530.4,268.9,551.1,268.9z"/>
		<path class="st1" d="M85.6,298.1c-6.4,10.5-15.2,19.4-25.9,25.7l-44.1,25.2c-2.3,1.3-3,4.1-1.7,6.4l11.2,19.1
			c1.3,2.2,4.2,3,6.5,1.7L75,351.4c10.9-6.2,23.6-9.7,37-9.7s26.1,3.5,37,9.7l43.4,24.7c2.3,1.3,5.1,0.5,6.5-1.7l11.2-19.1
			c1.3-2.2,0.5-5.1-1.7-6.4l-44.1-25.2c-10.6-6.3-19.5-15.2-25.9-25.7c-6.6-11.1-10.4-23.9-10.4-37.7v-48.9c0-2.6-2.1-4.6-4.7-4.6
			h-22.4c-2.6,0-4.7,2.1-4.7,4.6v48.9C96.1,274.2,92.3,287.1,85.6,298.1z"/>
	</g>
</g>
</svg>
