<?xml version="1.0" encoding="utf-8"?>
<!-- Generator: Adobe Illustrator 28.0.0, SVG Export Plug-In . SVG Version: 6.00 Build 0)  -->
<svg version="1.1" id="Layer_1" xmlns="http://www.w3.org/2000/svg" xmlns:xlink="http://www.w3.org/1999/xlink" x="0px" y="0px"
	 viewBox="0 0 1300 400" style="enable-background:new 0 0 1300 400;" xml:space="preserve">
<style type="text/css">
	.st0{fill:#EC7525;}
	.st1{font-family:'ShermanSans-Book';}
	.st2{font-size:142.1848px;}
	.st3{fill:#0D2D6C;}
</style>
<g>
	<text transform="matrix(1 0 0 1 7.9305 308.8155)" class="st0 st1 st2">Visual Communications</text>
	<g>
		<path class="st3" d="M129.5,184.4h-8.6L36.6,87.1v85.7l9.9,2.1v8.4H13.6v-8.4l9.9-2.1V72.3c-3.1-3.6-5.6-6.1-9.9-6.5v-8.4H35
			l81.5,93.9V67.8l-9.9-2.1v-8.4h32.8v8.4l-9.9,2.1V184.4z"/>
		<path class="st3" d="M165,146.3c0.8,14.7,10.5,26.3,23.9,26.3c11.7,0,19.7-5.1,25.5-13.9l4,2.5c-3.2,14.7-15.7,25-34.2,25
			c-18.9,0-35.1-13.6-35.1-38.2c0-33.4,20-47.7,38.5-47.7c17.3,0,31.9,10.3,31.9,34.7l-3.1,4.6L165,146.3z M165.3,136.3l37.2-5
			c0-15.1-7.6-21.4-15.7-21.4C172.6,110,165.9,122,165.3,136.3z"/>
		<path class="st3" d="M270.3,103.1h34.9v7.2l-9.3,2.3l21.9,49.4l18.7-49.6l-9-2.1v-7.2h28v7.2c-4.8,1.1-8.4,2.9-10.5,8.2l-26,66.6
			h-7.4L290.2,138l-21.6,47.1H261l-25.8-66.4c-2.1-5.3-3.1-6.5-10.9-8.4v-7.2h34.9v7.2l-9.3,2.3l18.9,49.6l16-36.2l-3.2-7.2
			c-2.3-5.1-3.4-6.5-11.2-8.4L270.3,103.1L270.3,103.1z"/>
		<path class="st3" d="M360.6,183.3v-7.2l7.6-1.9V75.6l-9.5-2.7v-6.7c9.3-1.5,13.9-4.6,18.1-10.9l6.7,1.1v59
			c9.3-8.6,19.9-15.1,31.3-15.1c12,0,21.2,8.2,21.2,18.9v54.5l9.5,2.3v7.2h-32.4V176l7.6-1.9v-47.5c0-8.2-4-12.6-11.4-12.6
			c-5.7,0-16,2.5-25.8,11.1v48.7l9.5,2.3v7.2H360.6L360.6,183.3z"/>
		<path class="st3" d="M533.8,142.3c0,26.1-19.9,43.9-42,43.9c-22.1,0-40.1-16.2-40.1-42c0-26.1,19.9-43.9,42-43.9
			C515.9,100.3,533.8,116.5,533.8,142.3z M517.8,145.7c0-22.5-12-35.3-25.8-35.3c-13.3,0-24.2,9-24.2,30.3c0,22.5,12,35.3,25.8,35.3
			C506.9,176,517.8,167,517.8,145.7z"/>
		<path class="st3" d="M548.9,112.7l-9.5-2.3v-7.2h24.8v56.7c0,8.2,4,12.6,11.4,12.6c5.7,0,16-2.5,25.8-11.1v-48.7l-9.5-2.3v-7.2
			h24.8v66.2h9.6v7.2c-6.3,1.5-13,4.2-18.1,8.4l-6.7-1.1l1-13.8c-9.5,9.2-20.4,16-32.2,16c-12,0-21.2-8.2-21.2-18.9L548.9,112.7
			L548.9,112.7z"/>
		<path class="st3" d="M642.1,183.3h-4.8l-3.8-23.3l5.7-1.3c4.6,9.5,13.9,18.3,25.8,18.3c10.5,0,14.7-7.1,14.7-12.2
			c0-17.8-43.3-14.7-43.3-41.6c0-12.6,10.9-22.9,24.8-22.9c8,0,14.5,2.7,17.9,5.3l0.8-2.5h5.9l3.6,20.4l-5.7,1.3
			c-2.5-5.6-8.8-15.4-20.8-15.4c-8.4,0-12,5.1-12,9.7c0,16.2,42.9,12.2,42.9,40.4c0,15.8-13.8,26.5-29,26.5
			c-8.2,0-17.5-4.6-20.8-8.8L642.1,183.3z"/>
		<path class="st3" d="M718.1,146.3c0.8,14.7,10.5,26.3,23.9,26.3c11.6,0,19.7-5.1,25.5-13.9l4,2.5c-3.2,14.7-15.7,25-34.2,25
			c-18.9,0-35.1-13.6-35.1-38.2c0-33.4,20-47.7,38.5-47.7c17.3,0,31.9,10.3,31.9,34.7l-3.1,4.6L718.1,146.3z M718.5,136.3l37.2-5
			c0-15.1-7.6-21.4-15.7-21.4C725.7,110,719,122,718.5,136.3z"/>
		<path class="st3" d="M819,183.3l-7.1-33.2l9-3.2c5.6,12.2,16.4,27.7,36.2,27.7c12.4,0,25-6.9,25-22.9c0-30.5-64.7-24-64.7-62.8
			c0-22.9,17.5-34.3,37.8-34.3c13.6,0,21.2,5.9,23.7,9l2.3-6.1h7.6l7.6,30l-9,3.2C882.1,79,871,66.3,855,66.3
			c-13.9,0-20.4,8.2-20.4,18.5c0,27.7,64.7,20.6,64.7,62.6c0,28.2-24,38.9-43.1,38.9c-11.1,0-19.9-3.6-27.5-8.8l-2.3,5.9L819,183.3
			L819,183.3z"/>
		<path class="st3" d="M980.9,115.5c0,5.7-5.5,9.2-10.9,9.3c-3.1-7.6-8.2-12.8-18.3-12.8c-14.3,0-25.6,12-25.6,32.4
			c0,17,10.9,28,25.6,28c11.1,0,19.1-5.1,24.6-12.2l4,2.5c-2.9,12.4-14.3,23.3-34.5,23.3c-18.9,0-35.7-13.2-35.7-37.8
			c0-30.3,24.4-48.1,46.8-48.1C968.3,100.3,980.9,105,980.9,115.5z"/>
		<path class="st3" d="M987.3,183.3v-7.2l7.6-1.9V75.6l-9.5-2.7v-6.7c9.3-1.5,13.9-4.6,18.1-10.9l6.7,1.1v59
			c9.3-8.6,19.9-15.1,31.3-15.1c12,0,21.2,8.2,21.2,18.9v54.5l9.5,2.3v7.2h-32.4V176l7.6-1.9v-47.5c0-8.2-4-12.6-11.4-12.6
			c-5.7,0-16,2.5-25.8,11.1v48.7l9.5,2.3v7.2H987.3L987.3,183.3z"/>
		<path class="st3" d="M1160.6,142.3c0,26.1-19.9,43.9-42,43.9s-40.1-16.2-40.1-42c0-26.1,19.9-43.9,42-43.9
			C1142.7,100.3,1160.6,116.5,1160.6,142.3z M1144.6,145.7c0-22.5-12-35.3-25.8-35.3c-13.3,0-24.2,9-24.2,30.3
			c0,22.5,12,35.3,25.8,35.3C1133.7,176,1144.6,167,1144.6,145.7z"/>
		<path class="st3" d="M1252.3,142.3c0,26.1-19.9,43.9-42,43.9s-40.1-16.2-40.1-42c0-26.1,19.9-43.9,42-43.9
			S1252.3,116.5,1252.3,142.3z M1236.2,145.7c0-22.5-12-35.3-25.8-35.3c-13.3,0-24.2,9-24.2,30.3c0,22.5,12,35.3,25.8,35.3
			C1225.4,176,1236.2,167,1236.2,145.7z"/>
		<path class="st3" d="M1259.6,183.3v-7.2l8.6-2.1V75.6l-9.5-2.7v-6.7c9.3-1.5,13.9-4.6,18.1-10.9l6.7,1.1v117.5l8.6,2.1v7.2
			L1259.6,183.3L1259.6,183.3z"/>
	</g>
</g>
</svg>
