<svg width="42" height="42" viewBox="0 0 42 42" fill="none" xmlns="http://www.w3.org/2000/svg">
<g clip-path="url(#clip0_5_311)">
<path d="M35.5547 7.86101C32.8772 6.65351 30.0072 5.76101 27.006 5.25351C26.9793 5.24838 26.9516 5.25169 26.9268 5.26298C26.902 5.27426 26.8814 5.29297 26.8677 5.31651C26.5002 5.96226 26.0907 6.80401 25.8037 7.46901C22.6207 6.99343 19.3846 6.99343 16.2015 7.46901C15.8818 6.73202 15.5213 6.01341 15.1217 5.31651C15.1082 5.29268 15.0877 5.27355 15.063 5.26167C15.0383 5.24979 15.0106 5.24572 14.9835 5.25001C11.984 5.75751 9.11399 6.65002 6.43474 7.85927C6.41169 7.86893 6.39215 7.88542 6.37874 7.90651C0.932737 15.9128 -0.560013 23.7213 0.173237 31.4318C0.175277 31.4506 0.181139 31.4689 0.190465 31.4855C0.199792 31.502 0.212388 31.5165 0.227487 31.528C3.40617 33.8423 6.95158 35.6052 10.7152 36.743C10.7415 36.7511 10.7695 36.7511 10.7958 36.743C10.822 36.7348 10.8451 36.719 10.8622 36.6975C11.6721 35.6144 12.3898 34.4653 13.0077 33.2623C13.0163 33.2458 13.0213 33.2277 13.0222 33.2092C13.0232 33.1907 13.0202 33.1722 13.0134 33.1549C13.0066 33.1376 12.9962 33.122 12.9828 33.1092C12.9694 33.0963 12.9535 33.0864 12.936 33.0803C11.8055 32.6545 10.7101 32.1408 9.65999 31.5438C9.64112 31.533 9.62522 31.5177 9.61371 31.4993C9.60221 31.4808 9.59546 31.4598 9.59407 31.4382C9.59268 31.4165 9.5967 31.3948 9.60576 31.375C9.61482 31.3553 9.62864 31.3381 9.64599 31.325C9.86649 31.1623 10.087 30.9925 10.297 30.8228C10.3159 30.8075 10.3387 30.7978 10.3628 30.7947C10.3869 30.7916 10.4113 30.7953 10.4335 30.8053C17.3057 33.8923 24.7485 33.8923 31.5402 30.8053C31.5624 30.7947 31.5872 30.7905 31.6116 30.7933C31.6361 30.7961 31.6592 30.8057 31.6785 30.821C31.8885 30.9925 32.1072 31.1623 32.3295 31.325C32.347 31.3378 32.361 31.3548 32.3704 31.3744C32.3797 31.3939 32.3841 31.4155 32.3831 31.4372C32.382 31.4589 32.3756 31.48 32.3644 31.4986C32.3533 31.5172 32.3376 31.5327 32.319 31.5438C31.2725 32.1458 30.184 32.655 29.0412 33.0785C29.0237 33.0849 29.0077 33.0949 28.9943 33.108C28.981 33.121 28.9706 33.1368 28.9638 33.1541C28.957 33.1715 28.954 33.1902 28.955 33.2088C28.9559 33.2275 28.9609 33.2457 28.9695 33.2623C29.5995 34.4645 30.3205 35.609 31.1132 36.6958C31.1297 36.7181 31.1527 36.7347 31.179 36.7435C31.2053 36.7523 31.2337 36.7527 31.2602 36.7448C35.0303 35.6101 38.5815 33.8464 41.7637 31.528C41.7793 31.5172 41.7923 31.5031 41.8019 31.4868C41.8116 31.4705 41.8177 31.4523 41.8197 31.4335C42.6947 22.519 40.3532 14.7735 35.609 7.91001C35.5974 7.88771 35.5781 7.87032 35.5547 7.86101ZM14.035 26.7365C11.9665 26.7365 10.2602 24.8658 10.2602 22.5715C10.2602 20.2755 11.9332 18.4065 14.035 18.4065C16.1525 18.4065 17.843 20.2913 17.8097 22.5715C17.8097 24.8675 16.1367 26.7365 14.035 26.7365ZM27.9912 26.7365C25.921 26.7365 24.2165 24.8658 24.2165 22.5715C24.2165 20.2755 25.8877 18.4065 27.9912 18.4065C30.1087 18.4065 31.7992 20.2913 31.766 22.5715C31.766 24.8675 30.1105 26.7365 27.9912 26.7365Z" fill="white"/>
</g>
<defs>
<clipPath id="clip0_5_311">
<rect width="42" height="42" fill="white"/>
</clipPath>
</defs>
</svg>
