<svg width="42" height="42" viewBox="0 0 42 42" fill="none" xmlns="http://www.w3.org/2000/svg">
<path d="M41.3753 8.63976C39.914 9.28726 38.3443 9.72476 36.694 9.92251C38.3968 8.90365 39.6707 7.30008 40.278 5.41101C38.6782 6.36124 36.9274 7.0301 35.1015 7.38851C33.8737 6.07753 32.2474 5.20858 30.4751 4.91659C28.7028 4.6246 26.8837 4.9259 25.3002 5.77371C23.7167 6.62151 22.4574 7.9684 21.7178 9.60524C20.9782 11.2421 20.7997 13.0773 21.21 14.826C17.9685 14.6633 14.7974 13.8207 11.9025 12.3531C9.00766 10.8855 6.45374 8.82554 4.40652 6.30701C3.70652 7.51451 3.30402 8.91451 3.30402 10.4055C3.30324 11.7478 3.63378 13.0694 4.26631 14.2533C4.89884 15.4372 5.8138 16.4466 6.93002 17.192C5.6355 17.1508 4.36955 16.801 3.23752 16.1718V16.2768C3.23739 18.1593 3.88858 19.9839 5.08059 21.441C6.2726 22.8981 7.93202 23.8979 9.77727 24.2708C8.57639 24.5958 7.31736 24.6436 6.09527 24.4108C6.61589 26.0306 7.63001 27.4471 8.99566 28.4619C10.3613 29.4767 12.0101 30.0391 13.7113 30.0703C10.8235 32.3372 7.25707 33.5669 3.58577 33.5615C2.93544 33.5617 2.28565 33.5237 1.63977 33.4478C5.36635 35.8438 9.70437 37.1154 14.1348 37.1105C29.1323 37.1105 37.331 24.689 37.331 13.916C37.331 13.566 37.3223 13.2125 37.3065 12.8625C38.9013 11.7092 40.2779 10.2811 41.3718 8.64501L41.3753 8.63976V8.63976Z" fill="white"/>
</svg>
