<?xml version="1.0" encoding="UTF-8"?><svg id="Layer_2" xmlns="http://www.w3.org/2000/svg" viewBox="0 0 749.43 153.45"><g id="Layer_1-2"><path d="m149.08,151c-10.23,2.58-20.02,2.12-28.28-.73-.88-.3-1.75-.63-2.59-1-9.43-3.97-16.55-11.22-19.58-20.62-14.49-5.41-20.55-13.7-16-21.43.5-.85,1.13-1.7,1.89-2.53-.52-.38-1-.76-1.46-1.15-1.25-1.06-2.26-2.13-3.07-3.19-5.42-7.17-.15-17.47,8.85-17.47h120.03c5.77,0,10.6,4.46,10.95,10.22.16,2.65-.08,5.58-1.11,8.52-.3.88-.67,1.75-1.13,2.62-1.41,2.7-3.59,5.33-6.85,7.68,4.63,12.03-4.81,23.04-23.16,27.18-1.65,3.4-3.98,6.26-6.83,8.5-.75.6-1.54,1.15-2.36,1.65-7.66,4.74-18.22,5.67-29.3,1.75Z"/><path d="m131.07,70.57H11.04c-8.81,0-14.05-9.87-9.16-17.02.09-.15.2-.3.31-.45.49-.65,1.06-1.3,1.72-1.95h0c.8-.81,1.72-1.6,2.8-2.38-7.67-8.41-1.98-17.96,14.11-23.97,2.32-7.2,7.04-13.13,13.35-17.29.79-.53,1.6-1.03,2.43-1.48C45.97.81,58.26-.84,71.28,2.45c8.13-2.87,15.97-3.14,22.6-1.21.9.26,1.78.56,2.63.91,5.82,2.33,10.49,6.51,13.26,12.2,18.35,4.14,27.79,15.15,23.16,27.18.99.71,1.87,1.44,2.67,2.2.74.7,1.4,1.42,1.99,2.15,3.84,4.74,4.7,10.02,4.43,14.47-.35,5.76-5.18,10.22-10.95,10.22Z"/><path d="m112,41.2c1.61,10.8,5.17,20.97,10.32,30.14,6.6,11.76,15.81,21.87,26.84,29.53v-3.48c-10.14-7.4-18.61-16.98-24.69-28.04-4.89-8.86-8.25-18.67-9.73-29.08l-2.74.93Z"/><path d="m181.9,41.2c-1.61,10.8-5.17,20.97-10.32,30.14-6.6,11.76-15.81,21.87-26.84,29.53v-3.48c10.14-7.4,18.61-16.98,24.69-28.04,4.89-8.86,8.25-18.67,9.73-29.08l2.74.93Z"/><path d="m263.85,41.2c1.61,10.8,5.17,20.97,10.32,30.14,6.6,11.76,15.81,21.87,26.84,29.53v-3.48c-10.14-7.4-18.61-16.98-24.69-28.04-4.89-8.86-8.25-18.67-9.73-29.08l-2.74.93Z"/><path d="m333.74,41.2c-1.61,10.8-5.17,20.97-10.32,30.14-6.6,11.76-15.81,21.87-26.84,29.53v-3.48c10.14-7.4,18.61-16.98,24.69-28.04,4.89-8.86,8.25-18.67,9.73-29.08l2.74.93Z"/><path d="m415.69,41.2c1.61,10.8,5.17,20.97,10.32,30.14,6.6,11.76,15.81,21.87,26.84,29.53v-3.48c-10.14-7.4-18.61-16.98-24.69-28.04-4.89-8.86-8.25-18.67-9.73-29.08l-2.74.93Z"/><path d="m485.59,41.2c-1.61,10.8-5.17,20.97-10.32,30.14-6.6,11.76-15.81,21.87-26.84,29.53v-3.48c10.14-7.4,18.61-16.98,24.69-28.04,4.89-8.86,8.25-18.67,9.73-29.08l2.74.93Z"/><path d="m567.53,41.2c1.61,10.8,5.17,20.97,10.32,30.14,6.6,11.76,15.81,21.87,26.84,29.53v-3.48c-10.14-7.4-18.61-16.98-24.69-28.04-4.89-8.86-8.25-18.67-9.73-29.08l-2.74.93Z"/><path d="m637.43,41.2c-1.61,10.8-5.17,20.97-10.32,30.14-6.6,11.76-15.81,21.87-26.84,29.53v-3.48c10.14-7.4,18.61-16.98,24.69-28.04,4.89-8.86,8.25-18.67,9.73-29.08l2.74.93Z"/><path d="m300.92,151c-10.23,2.58-20.02,2.12-28.28-.73-.88-.3-1.75-.63-2.59-1-9.43-3.97-16.55-11.22-19.58-20.62-14.49-5.41-20.55-13.7-16-21.43.5-.85,1.13-1.7,1.89-2.53-.52-.38-1-.76-1.46-1.15-1.25-1.06-2.26-2.13-3.07-3.19-5.42-7.17-.15-17.47,8.85-17.47h120.03c5.77,0,10.6,4.46,10.95,10.22.16,2.65-.08,5.58-1.11,8.52-.3.88-.67,1.75-1.13,2.62-1.41,2.7-3.59,5.33-6.85,7.68,4.63,12.03-4.81,23.04-23.16,27.18-1.65,3.4-3.98,6.26-6.83,8.5-.75.6-1.54,1.15-2.36,1.65-7.66,4.74-18.22,5.67-29.3,1.75Z"/><path d="m282.91,70.57h-120.03c-8.81,0-14.05-9.87-9.16-17.02.09-.15.2-.3.31-.45.49-.65,1.06-1.3,1.72-1.95h0c.8-.81,1.72-1.6,2.8-2.38-7.67-8.41-1.98-17.96,14.11-23.97,2.32-7.2,7.04-13.13,13.35-17.29.79-.53,1.6-1.03,2.43-1.48,9.36-5.22,21.65-6.87,34.67-3.58,8.13-2.87,15.97-3.14,22.6-1.21.9.26,1.78.56,2.63.91,5.82,2.33,10.49,6.51,13.26,12.2,18.35,4.14,27.79,15.15,23.16,27.18.99.71,1.87,1.44,2.67,2.2.74.7,1.4,1.42,1.99,2.15,3.84,4.74,4.7,10.02,4.43,14.47-.35,5.76-5.18,10.22-10.95,10.22Z"/><path d="m452.77,151c-10.23,2.58-20.02,2.12-28.28-.73-.88-.3-1.75-.63-2.59-1-9.43-3.97-16.55-11.22-19.58-20.62-14.49-5.41-20.55-13.7-16-21.43.5-.85,1.13-1.7,1.89-2.53-.52-.38-1-.76-1.46-1.15-1.25-1.06-2.26-2.13-3.07-3.19-5.42-7.17-.15-17.47,8.85-17.47h120.03c5.77,0,10.6,4.46,10.95,10.22.16,2.65-.08,5.58-1.11,8.52-.3.88-.67,1.75-1.13,2.62-1.41,2.7-3.59,5.33-6.85,7.68,4.63,12.03-4.81,23.04-23.16,27.18-1.65,3.4-3.98,6.26-6.83,8.5-.75.6-1.54,1.15-2.36,1.65-7.66,4.74-18.22,5.67-29.3,1.75Z"/><path d="m434.75,70.57h-120.03c-8.81,0-14.05-9.87-9.16-17.02.09-.15.2-.3.31-.45.49-.65,1.06-1.3,1.72-1.95h0c.8-.81,1.72-1.6,2.8-2.38-7.67-8.41-1.98-17.96,14.11-23.97,2.32-7.2,7.04-13.13,13.35-17.29.79-.53,1.6-1.03,2.43-1.48,9.36-5.22,21.65-6.87,34.67-3.58,8.13-2.87,15.97-3.14,22.6-1.21.9.26,1.78.56,2.63.91,5.82,2.33,10.49,6.51,13.26,12.2,18.35,4.14,27.79,15.15,23.16,27.18.99.71,1.87,1.44,2.67,2.2.74.7,1.4,1.42,1.99,2.15,3.84,4.74,4.7,10.02,4.43,14.47-.35,5.76-5.18,10.22-10.95,10.22Z"/><path d="m604.61,151c-10.23,2.58-20.02,2.12-28.28-.73-.88-.3-1.75-.63-2.59-1-9.43-3.97-16.55-11.22-19.58-20.62-14.49-5.41-20.55-13.7-16-21.43.5-.85,1.13-1.7,1.89-2.53-.52-.38-1-.76-1.46-1.15-1.25-1.06-2.26-2.13-3.07-3.19-5.42-7.17-.15-17.47,8.85-17.47h120.03c5.77,0,10.6,4.46,10.95,10.22.16,2.65-.08,5.58-1.11,8.52-.3.88-.67,1.75-1.13,2.62-1.41,2.7-3.59,5.33-6.85,7.68,4.63,12.03-4.81,23.04-23.16,27.18-1.65,3.4-3.98,6.26-6.83,8.5-.75.6-1.54,1.15-2.36,1.65-7.66,4.74-18.22,5.67-29.3,1.75Z"/><path d="m586.59,70.57h-120.03c-8.81,0-14.05-9.87-9.16-17.02.09-.15.2-.3.31-.45.49-.65,1.06-1.3,1.72-1.95h0c.8-.81,1.72-1.6,2.8-2.38-7.67-8.41-1.98-17.96,14.11-23.97,2.32-7.2,7.04-13.13,13.35-17.29.79-.53,1.6-1.03,2.43-1.48,9.36-5.22,21.65-6.87,34.67-3.58,8.13-2.87,15.97-3.14,22.6-1.21.9.26,1.78.56,2.63.91,5.82,2.33,10.49,6.51,13.26,12.2,18.35,4.14,27.79,15.15,23.16,27.18.99.71,1.87,1.44,2.67,2.2.74.7,1.4,1.42,1.99,2.15,3.84,4.74,4.7,10.02,4.43,14.47-.35,5.76-5.18,10.22-10.95,10.22Z"/><path d="m738.44,70.57h-120.03c-8.81,0-14.05-9.87-9.16-17.02.09-.15.2-.3.31-.45.49-.65,1.06-1.3,1.72-1.95h0c.8-.81,1.72-1.6,2.8-2.38-7.67-8.41-1.98-17.96,14.11-23.97,2.32-7.2,7.04-13.13,13.35-17.29.79-.53,1.6-1.03,2.43-1.48,9.36-5.22,21.65-6.87,34.67-3.58,8.13-2.87,15.97-3.14,22.6-1.21.9.26,1.78.56,2.63.91,5.82,2.33,10.49,6.51,13.26,12.2,18.35,4.14,27.79,15.15,23.16,27.18.99.71,1.87,1.44,2.67,2.2.74.7,1.4,1.42,1.99,2.15,3.84,4.74,4.7,10.02,4.43,14.47-.35,5.76-5.18,10.22-10.95,10.22Z"/></g></svg>